<!-- Generator: Adobe Illustrator 18.1.0, SVG Export Plug-In  -->
<svg version="1.1"
	 xmlns="http://www.w3.org/2000/svg" xmlns:xlink="http://www.w3.org/1999/xlink" xmlns:a="http://ns.adobe.com/AdobeSVGViewerExtensions/3.0/"
	 x="0px" y="0px" width="147.2px" height="55.7px" viewBox="0 0 147.2 55.7" enable-background="new 0 0 147.2 55.7"
	 xml:space="preserve">
<defs>
</defs>
<g>
	<g>
		<path fill="none" stroke="#BBBDBF" stroke-width="2" stroke-linecap="round" stroke-linejoin="round" stroke-miterlimit="10" d="
			M52.7,54.2H30.2V54c0-8.7,7.1-13.9,15.8-13.9h10.7"/>

			<ellipse fill="none" stroke="#BBBDBF" stroke-width="2" stroke-linecap="round" stroke-linejoin="round" stroke-miterlimit="10" cx="51.4" cy="23.8" rx="10.3" ry="12.8"/>
	</g>
	<g>
		<path fill="none" stroke="#BBBDBF" stroke-width="2" stroke-linecap="round" stroke-linejoin="round" stroke-miterlimit="10" d="
			M123.8,54.2h22.5V54c0-8.7-7.1-13.9-15.8-13.9h-10.7"/>

			<ellipse fill="none" stroke="#BBBDBF" stroke-width="2" stroke-linecap="round" stroke-linejoin="round" stroke-miterlimit="10" cx="125.1" cy="23.8" rx="10.3" ry="12.8"/>
	</g>
	<g>
		<path fill="none" stroke="#BBBDBF" stroke-width="2" stroke-linecap="round" stroke-linejoin="round" stroke-miterlimit="10" d="
			M22,54.2H1v-0.1c0-7.7,6.3-12.3,14-12.3h9.5"/>

			<ellipse fill="none" stroke="#BBBDBF" stroke-width="2" stroke-linecap="round" stroke-linejoin="round" stroke-miterlimit="10" cx="19.7" cy="27.3" rx="9.1" ry="11.3"/>
	</g>
	<g>
		<path fill="none" stroke="#33B8DF" stroke-width="3" stroke-linecap="round" stroke-linejoin="round" stroke-miterlimit="10" d="
			M113,54.2H61.4V54c0-10.7,8.6-16.9,19.3-16.9h13c10.7,0,19.3,6.3,19.3,16.9V54.2z"/>

			<ellipse fill="none" stroke="#33B8DF" stroke-width="3" stroke-linecap="round" stroke-linejoin="round" stroke-miterlimit="10" cx="87.2" cy="17.1" rx="12.6" ry="15.6"/>
	</g>
</g>
</svg>
