<?xml version="1.0" encoding="UTF-8" ?>
<!DOCTYPE svg PUBLIC "-//W3C//DTD SVG 1.1//EN" "http://www.w3.org/Graphics/SVG/1.1/DTD/svg11.dtd">
<svg width="128pt" height="128pt" viewBox="0 0 128 128" version="1.1" xmlns="http://www.w3.org/2000/svg">
<g id="#333333ff">
<path fill="#333333" opacity="1.00" d=" M 75.89 9.82 C 82.57 3.55 91.91 0.05 101.09 1.02 C 112.91 2.03 123.39 11.19 126.25 22.66 C 129.04 33.29 125.22 44.91 117.65 52.66 C 109.75 60.78 101.66 68.71 93.66 76.73 C 88.37 82.03 81.59 86.09 74.06 87.04 C 64.66 88.49 54.34 85.27 48.12 77.92 C 44.75 73.58 47.67 66.49 53.08 65.66 C 57.42 64.53 60.43 68.42 63.88 70.21 C 70.26 73.25 77.90 70.42 82.40 65.40 C 90.21 57.54 98.09 49.77 105.89 41.90 C 109.50 38.28 111.91 33.08 110.97 27.90 C 110.32 22.03 104.95 17.09 99.04 16.94 C 94.18 16.36 89.52 18.79 86.14 22.11 C 81.43 26.71 76.84 31.43 72.15 36.06 C 66.18 32.48 58.47 31.04 51.85 33.56 C 60.04 25.83 67.70 17.56 75.89 9.82 Z" />
<path fill="#333333" opacity="1.00" d=" M 44.05 44.07 C 53.72 39.09 66.15 39.43 75.13 45.77 C 77.91 47.78 81.10 50.23 81.29 53.97 C 81.79 58.53 77.64 62.78 73.09 62.51 C 68.94 62.37 66.54 58.31 62.74 57.23 C 56.85 55.26 50.31 57.71 46.14 62.05 C 38.12 70.07 30.07 78.07 22.09 86.13 C 18.49 89.73 16.11 94.91 17.02 100.06 C 17.66 105.97 23.07 110.94 29.03 111.07 C 33.86 111.62 38.50 109.19 41.87 105.88 C 46.57 101.28 51.16 96.57 55.84 91.95 C 61.83 95.51 69.53 96.96 76.16 94.45 C 67.95 102.15 60.29 110.42 52.12 118.15 C 45.45 124.46 36.09 127.95 26.91 126.98 C 15.34 125.98 4.98 117.22 1.93 106.04 C -1.11 95.48 2.43 83.76 9.86 75.86 C 15.52 69.84 21.52 64.16 27.31 58.27 C 32.56 53.19 37.38 47.37 44.05 44.07 Z" />
</g>
</svg>
