<?xml version="1.0" encoding="utf-8"?>
<!-- Generator: Adobe Illustrator 18.1.1, SVG Export Plug-In . SVG Version: 6.00 Build 0)  -->
<svg version="1.1" id="Layer_1" xmlns="http://www.w3.org/2000/svg" xmlns:xlink="http://www.w3.org/1999/xlink" x="0px" y="0px"
	 viewBox="71.7 49.2 222.5 155.5" enable-background="new 71.7 49.2 222.5 155.5" xml:space="preserve">
<g id="Layer_1_1_">
</g>
<g id="Isolation_Mode">
	<path fill="#2A4550" d="M183.7,141.5c8.2-28,16.4-56.1,24.2-84.3c1.8-6,4.2-8.2,10.6-8c22.6,0.4,45.3,0.2,67.7,0.2
		c2.4,0,4.9,0,7.8,0c0,7.1,0,13.5,0,20.9c-4.2,0-8.4-0.2-12.4,0c-6,0.2-9.1,3.5-9.1,9.5c0,31.5,0,63,0,94.5c0,6.7,3.8,9.8,10.4,9.8
		c3.5,0,7.3,0,11.3,0c0,7.1,0,13.3,0,20.4c-28.2,0-56.4,0-84.7,0c0-6.7,0-13.1,0-19.7c18.4-2.2,18.4-2.2,18.4-21.1
		c0-24.8,0-49.7,0-74.5c0-2.4,0-4.9,0-7.1c-0.4,0-0.9-0.2-1.3-0.2c-11.8,40.8-23.3,81.6-35.1,122.7c-11.5,0-22.9,0-34.8,0
		c-11.8-41.7-23.3-83.6-35.1-125.3c-0.4,0-0.7,0-1.1,0c0,2.2-0.2,4.7-0.2,6.9c0,27.7,0,55.7,0,83.4c0,13.1,1.1,14.4,14.4,14.6
		c1.3,0,2.4,0.2,4,0.4c0,6.7,0,13.3,0,20.2c-22.4,0-44.4,0-67,0c0-6.7,0-13.3,0-20.6c3.8,0,7.3,0,11.1,0c8.7-0.2,11.3-2.4,11.3-10.9
		c0-30.8,0-61.5,0-92.3c0-8.2-2.2-10.4-10.6-10.6c-3.8-0.2-7.3,0-11.5,0c0-7.1,0-13.3,0-20.4c2.2-0.2,4.7-0.4,7.1-0.4
		c23.5,0,47.3,0.2,70.8-0.2c5.5,0,7.5,1.8,8.9,7.1c7.1,26,14.6,51.9,22,77.9c0.7,2.4,1.6,4.9,2.4,7.5
		C182.6,141.5,183.3,141.5,183.7,141.5z"/>
</g>
</svg>
