<!-- Generator: Adobe Illustrator 18.1.0, SVG Export Plug-In  -->
<svg version="1.1"
	 xmlns="http://www.w3.org/2000/svg" xmlns:xlink="http://www.w3.org/1999/xlink" xmlns:a="http://ns.adobe.com/AdobeSVGViewerExtensions/3.0/"
	 x="0px" y="0px" width="81.5px" height="117.4px" viewBox="0 0 81.5 117.4" enable-background="new 0 0 81.5 117.4"
	 xml:space="preserve">
<defs>
</defs>
<path fill="#F58145" d="M40.8,38.7v78.7c-1.7,0-3.3-0.7-4.5-1.7c-0.1-0.1-0.2-0.2-0.3-0.3L0.4,79.9c-0.1-0.1-0.2-0.3-0.3-0.4
	c0,0,0-0.1,0-0.1L40.8,38.7z"/>
<path fill="#F26346" d="M40.8,38.7L0.1,79.3C0,79.2,0,79,0,78.8V1.5c0-1.3,1.6-2,2.5-1L40.8,38.7z"/>
<path fill="#F26346" d="M81.4,79.3C81.4,79.4,81.4,79.4,81.4,79.3c-0.1,0.2-0.2,0.4-0.3,0.5l-35.4,35.4c0,0,0,0,0,0l-0.4,0.4
	c0,0,0,0,0,0c-1.2,1.1-2.8,1.7-4.5,1.7V38.7L81.4,79.3z"/>
<path fill="#F58145" d="M81.5,1.5v77.4c0,0.2,0,0.3-0.1,0.5L40.8,38.7L79,0.4C79.9-0.5,81.5,0.2,81.5,1.5z"/>
</svg>
