<!-- Generator: Adobe Illustrator 18.1.0, SVG Export Plug-In  -->
<svg version="1.1"
	 xmlns="http://www.w3.org/2000/svg" xmlns:xlink="http://www.w3.org/1999/xlink" xmlns:a="http://ns.adobe.com/AdobeSVGViewerExtensions/3.0/"
	 x="0px" y="0px" width="133.8px" height="102.5px" viewBox="0 0 133.8 102.5" enable-background="new 0 0 133.8 102.5"
	 xml:space="preserve">
<defs>
</defs>
<path fill="none" stroke="#BBBDBF" stroke-width="2" stroke-linecap="round" stroke-linejoin="round" stroke-miterlimit="10" d="
	M67.1,36.1h5.3l1.3,4.2l2.4,7.5L81.5,36l8.3-0.2c8.4-1.2,14.8-8.4,14.8-17.2v-0.4C104.6,8.8,96.8,1,87.2,1H67.1
	c-3.9,0-7.5,1.3-10.3,3.4c-1.2,0.9-2.3,2-3.2,3.1"/>
<path fill="none" stroke="#BBBDBF" stroke-width="2" stroke-linecap="round" stroke-linejoin="round" stroke-miterlimit="10" d="
	M57.5,31.5v0.4c0,9-6.6,16.4-15.2,17.7v10.3L32.2,49.8H18.9C9,49.8,1,41.8,1,31.9v-0.4c0-9.9,8-17.9,17.9-17.9h20.7
	C49.5,13.6,57.5,21.6,57.5,31.5z"/>
<circle fill="none" stroke="#BBBDBF" stroke-width="2" stroke-linecap="round" stroke-linejoin="round" stroke-miterlimit="10" cx="19.3" cy="31.6" r="2.5"/>
<g>

		<circle fill="none" stroke="#BBBDBF" stroke-width="2" stroke-linecap="round" stroke-linejoin="round" stroke-miterlimit="10" cx="29.3" cy="31.6" r="2.5"/>

		<circle fill="none" stroke="#BBBDBF" stroke-width="2" stroke-linecap="round" stroke-linejoin="round" stroke-miterlimit="10" cx="39.3" cy="31.6" r="2.5"/>
</g>
<g>

		<circle fill="none" stroke="#BBBDBF" stroke-width="2" stroke-linecap="round" stroke-linejoin="round" stroke-miterlimit="10" cx="108.1" cy="37.8" r="2.5"/>

		<circle fill="none" stroke="#BBBDBF" stroke-width="2" stroke-linecap="round" stroke-linejoin="round" stroke-miterlimit="10" cx="118.1" cy="37.8" r="2.5"/>
</g>
<path fill="none" stroke="#BBBDBF" stroke-width="2" stroke-linecap="round" stroke-linejoin="round" stroke-miterlimit="10" d="
	M82.3,36.2"/>
<path fill="none" stroke="#BBBDBF" stroke-width="2" stroke-linecap="round" stroke-linejoin="round" stroke-miterlimit="10" d="
	M86.2,47c2.4,2.8,5.9,4.8,9.7,5.3v9.2l9-9h11.9c8.8,0,16-7.2,16-16v-0.3c0-8.8-7.2-16-16-16"/>
<line fill="none" stroke="#BBBDBF" stroke-width="2" stroke-linecap="round" stroke-linejoin="round" stroke-miterlimit="10" x1="66.7" y1="14.5" x2="93.7" y2="14.5"/>
<line fill="none" stroke="#BBBDBF" stroke-width="2" stroke-linecap="round" stroke-linejoin="round" stroke-miterlimit="10" x1="71.4" y1="23.2" x2="91.4" y2="23.2"/>
<g>
	<path fill="none" stroke="#475A93" stroke-width="3" stroke-miterlimit="10" d="M91.3,101H49v-0.2C49,92.1,56.1,87,64.8,87h10.7
		c8.7,0,15.8,5.1,15.8,13.9V101z"/>
	<ellipse fill="none" stroke="#475A93" stroke-width="3" stroke-miterlimit="10" cx="70.2" cy="70.6" rx="10.3" ry="12.8"/>
</g>
</svg>
